<?xml version="1.0" standalone="no"?>
<!DOCTYPE svg PUBLIC "-//W3C//DTD SVG 1.0//EN" "http://www.w3.org/TR/2001/REC-SVG-20010904/DTD/svg10.dtd">
<svg xmlns="http://www.w3.org/2000/svg" xmlns:xlink="http://www.w3.org/1999/xlink" id="body_1" width="1200" height="600">

<defs>
        <clipPath  id="1">

            <path clip-rule="evenodd" d="M30 15L60 15L60 30L30 15zM30 15L30 30L0 30zM30 15L0 15L0 0zM0 30L0 15L30 15z" />        </clipPath>
</defs>

<g transform="matrix(20 0 0 20 0 0)">
    <path d="M0 0L0 30L60 30L60 0L0 0z" stroke="none" fill="#00247D" fill-rule="nonzero" />
    <path d="M0 0L60 30zM60 0L0 30" stroke="#FFFFFF" stroke-width="6" fill="#000000" fill-rule="nonzero" />
    <path clip-path="url(#1)"  d="M0 0L60 30zM60 0L0 30" stroke="#CF142B" stroke-width="4" fill="#000000" fill-rule="nonzero" />
    <path d="M30 0L30 30zM0 15L60 15" stroke="#FFFFFF" stroke-width="10" fill="#000000" fill-rule="nonzero" />
    <path d="M30 0L30 30zM0 15L60 15" stroke="#CF142B" stroke-width="6" fill="#000000" fill-rule="nonzero" />
</g>
</svg>